# Blender 3.3.1
# www.blender.org
o socket
v 1.881574 -0.000000 -0.003614
v 1.881574 -0.000705 -0.003545
v 1.881574 -0.001383 -0.003339
v 1.881574 -0.002008 -0.003005
v 1.881574 -0.002556 -0.002556
v 1.881574 -0.003005 -0.002008
v 1.881574 -0.003339 -0.001383
v 1.881574 -0.003545 -0.000705
v 1.881574 -0.003614 -0.000000
v 1.881574 -0.003545 0.000705
v 1.881574 -0.003339 0.001383
v 1.881574 -0.003005 0.002008
v 1.881574 -0.002556 0.002556
v 1.881574 -0.002008 0.003005
v 1.881574 -0.001383 0.003339
v 1.881574 -0.000705 0.003545
v 1.881574 -0.000000 0.003614
v 1.881574 0.000705 0.003545
v 1.881574 0.001383 0.003339
v 1.881574 0.002008 0.003005
v 1.881574 0.002555 0.002556
v 1.881574 0.003005 0.002008
v 1.881574 0.003339 0.001383
v 1.881574 0.003545 0.000705
v 1.881574 0.003614 -0.000000
v 1.881574 0.003545 -0.000705
v 1.881574 0.003339 -0.001383
v 1.881574 0.003005 -0.002008
v 1.881574 0.002555 -0.002556
v 1.881574 0.002008 -0.003005
v 1.881574 0.001383 -0.003339
v 1.881574 0.000705 -0.003545
v 1.815637 0.000000 -0.022496
v 1.815637 -0.004389 -0.022064
v 1.815637 -0.008609 -0.020784
v 1.815637 -0.012498 -0.018705
v 1.815637 -0.015907 -0.015907
v 1.815637 -0.018705 -0.012498
v 1.815637 -0.020784 -0.008609
v 1.815637 -0.022064 -0.004389
v 1.815637 -0.022496 0.000000
v 1.815637 -0.022064 0.004389
v 1.815637 -0.020784 0.008609
v 1.815637 -0.018705 0.012498
v 1.815637 -0.015907 0.015907
v 1.815637 -0.012498 0.018705
v 1.815637 -0.008609 0.020784
v 1.815637 -0.004389 0.022064
v 1.815637 0.000000 0.022496
v 1.815637 0.004389 0.022064
v 1.815637 0.008609 0.020784
v 1.815637 0.012498 0.018705
v 1.815637 0.015907 0.015907
v 1.815637 0.018705 0.012498
v 1.815637 0.020784 0.008609
v 1.815637 0.022064 0.004389
v 1.815637 0.022496 0.000000
v 1.815637 0.022064 -0.004389
v 1.815637 0.020784 -0.008609
v 1.815637 0.018705 -0.012498
v 1.815637 0.015907 -0.015907
v 1.815637 0.012498 -0.018705
v 1.815637 0.008609 -0.020784
v 1.815637 0.004389 -0.022064
v 1.662475 -0.004389 -0.022064
v 1.662475 -0.008609 -0.020784
v 1.662475 -0.012498 -0.018705
v 1.662475 -0.015907 -0.015907
v 1.662475 -0.018705 -0.012498
v 1.662475 -0.020784 -0.008609
v 1.662475 -0.022064 -0.004389
v 1.662475 -0.022496 0.000000
v 1.662475 -0.022064 0.004389
v 1.662475 -0.020784 0.008609
v 1.662475 -0.018705 0.012498
v 1.662475 -0.015907 0.015907
v 1.662475 -0.012498 0.018705
v 1.662475 -0.008609 0.020784
v 1.662475 -0.004389 0.022064
v 1.662475 0.000000 0.022496
v 1.662475 0.004389 0.022064
v 1.662475 0.008609 0.020784
v 1.662475 0.012498 0.018705
v 1.662475 0.015907 0.015907
v 1.662475 0.018705 0.012498
v 1.662475 0.020784 0.008609
v 1.662475 0.022064 0.004389
v 1.662475 0.022496 0.000000
v 1.662475 0.022064 -0.004389
v 1.662475 0.020784 -0.008609
v 1.662475 0.018705 -0.012498
v 1.662475 0.015907 -0.015907
v 1.662475 0.012498 -0.018705
v 1.662475 0.008609 -0.020784
v 1.662475 0.004389 -0.022064
v 1.662475 0.000000 -0.022496
vn 0.2741 -0.0943 -0.9571
vn 0.2741 -0.2792 -0.9203
vn 0.2741 -0.4533 -0.8482
vn 0.2741 -0.6101 -0.7434
vn 0.2741 -0.7434 -0.6101
vn 0.2741 -0.8482 -0.4533
vn 0.2741 -0.9203 -0.2792
vn 0.2741 -0.9571 -0.0943
vn 0.2741 -0.9571 0.0943
vn 0.2741 -0.9203 0.2792
vn 0.2741 -0.8482 0.4533
vn 0.2741 -0.7434 0.6101
vn 0.2741 -0.6101 0.7434
vn 0.2741 -0.4533 0.8482
vn 0.2741 -0.2792 0.9203
vn 0.2741 -0.0943 0.9571
vn 0.2741 0.0943 0.9571
vn 0.2741 0.2792 0.9203
vn 0.2741 0.4533 0.8482
vn 0.2741 0.6101 0.7434
vn 0.2741 0.7434 0.6101
vn 0.2741 0.8482 0.4533
vn 0.2741 0.9203 0.2792
vn 0.2741 0.9571 0.0943
vn 0.2741 0.9571 -0.0943
vn 0.2741 0.9203 -0.2792
vn 0.2741 0.8482 -0.4533
vn 0.2741 0.7434 -0.6101
vn 0.2741 0.6101 -0.7434
vn 0.2741 0.4533 -0.8482
vn 1.0000 -0.0000 -0.0000
vn 0.2741 0.2792 -0.9203
vn 0.2741 0.0943 -0.9571
vn -0.0000 0.0980 -0.9952
vn -0.0000 0.2903 -0.9569
vn -0.0000 0.4714 -0.8819
vn -0.0000 0.6344 -0.7730
vn -0.0000 0.7730 -0.6344
vn -0.0000 0.8819 -0.4714
vn -0.0000 0.9569 -0.2903
vn -0.0000 0.9952 -0.0980
vn -0.0000 0.9952 0.0980
vn -0.0000 0.9569 0.2903
vn -0.0000 0.8819 0.4714
vn -0.0000 0.7730 0.6344
vn -0.0000 0.6344 0.7730
vn -0.0000 0.4714 0.8819
vn -0.0000 0.2903 0.9569
vn -0.0000 0.0980 0.9952
vn -0.0000 -0.0980 0.9952
vn -0.0000 -0.2903 0.9569
vn -0.0000 -0.4714 0.8819
vn -0.0000 -0.6344 0.7730
vn -0.0000 -0.7730 0.6344
vn -0.0000 -0.8819 0.4714
vn -0.0000 -0.9569 0.2903
vn -0.0000 -0.9952 0.0980
vn -0.0000 -0.9952 -0.0980
vn -0.0000 -0.9569 -0.2903
vn -0.0000 -0.8819 -0.4714
vn -0.0000 -0.7730 -0.6344
vn -0.0000 -0.6344 -0.7730
vn -0.0000 -0.4714 -0.8819
vn -0.0000 -0.2903 -0.9569
vn -0.0000 -0.0980 -0.9952
vn -1.0000 -0.0000 -0.0000
vn 0.2741 -0.4534 0.8481
vn 0.2741 0.4534 0.8481
vn 0.2741 0.8481 0.4533
vn 0.2741 0.4534 -0.8481
vn 1.0000 0.0001 -0.0000
vn 1.0000 -0.0005 -0.0000
vn 1.0000 -0.0001 -0.0000
vn 1.0000 0.0005 -0.0000
vt 1.000000 1.000000
vt 0.250000 0.490000
vt 0.000000 1.000000
vt 0.968750 1.000000
vt 0.296822 0.485388
vt 0.937500 1.000000
vt 0.341844 0.471731
vt 0.906250 1.000000
vt 0.383337 0.449553
vt 0.875000 1.000000
vt 0.419706 0.419706
vt 0.843750 1.000000
vt 0.449553 0.383337
vt 0.812500 1.000000
vt 0.471731 0.341844
vt 0.781250 1.000000
vt 0.485388 0.296822
vt 0.750000 1.000000
vt 0.490000 0.250000
vt 0.718750 1.000000
vt 0.485388 0.203178
vt 0.687500 1.000000
vt 0.471731 0.158156
vt 0.656250 1.000000
vt 0.449553 0.116663
vt 0.625000 1.000000
vt 0.419706 0.080294
vt 0.593750 1.000000
vt 0.383337 0.050447
vt 0.562500 1.000000
vt 0.341844 0.028269
vt 0.531250 1.000000
vt 0.296822 0.014612
vt 0.500000 1.000000
vt 0.250000 0.010000
vt 0.468750 1.000000
vt 0.203178 0.014612
vt 0.437500 1.000000
vt 0.158156 0.028269
vt 0.406250 1.000000
vt 0.116663 0.050447
vt 0.375000 1.000000
vt 0.080294 0.080294
vt 0.343750 1.000000
vt 0.050447 0.116663
vt 0.312500 1.000000
vt 0.028269 0.158156
vt 0.281250 1.000000
vt 0.014612 0.203178
vt 0.250000 1.000000
vt 0.010000 0.250000
vt 0.218750 1.000000
vt 0.014612 0.296822
vt 0.187500 1.000000
vt 0.028269 0.341844
vt 0.156250 1.000000
vt 0.050447 0.383337
vt 0.125000 1.000000
vt 0.080294 0.419706
vt 0.093750 1.000000
vt 0.116663 0.449553
vt 0.158156 0.471731
vt 0.062500 1.000000
vt 0.203178 0.485388
vt 0.031250 1.000000
vt 0.000000 0.750000
vt 1.000000 0.750000
vt 0.968750 0.750000
vt 0.937500 0.750000
vt 0.906250 0.750000
vt 0.875000 0.750000
vt 0.843750 0.750000
vt 0.812500 0.750000
vt 0.781250 0.750000
vt 0.750000 0.750000
vt 0.718750 0.750000
vt 0.687500 0.750000
vt 0.656250 0.750000
vt 0.625000 0.750000
vt 0.593750 0.750000
vt 0.562500 0.750000
vt 0.531250 0.750000
vt 0.500000 0.750000
vt 0.468750 0.750000
vt 0.437500 0.750000
vt 0.406250 0.750000
vt 0.375000 0.750000
vt 0.343750 0.750000
vt 0.312500 0.750000
vt 0.281250 0.750000
vt 0.250000 0.750000
vt 0.218750 0.750000
vt 0.187500 0.750000
vt 0.156250 0.750000
vt 0.125000 0.750000
vt 0.093750 0.750000
vt 0.062500 0.750000
vt 0.031250 0.750000
vt 0.968750 0.674727
vt 0.937500 0.674727
vt 0.906250 0.674727
vt 0.875000 0.674727
vt 0.843750 0.674727
vt 0.812500 0.674727
vt 0.781250 0.674727
vt 0.750000 0.674727
vt 0.718750 0.674727
vt 0.687500 0.674727
vt 0.656250 0.674727
vt 0.625000 0.674727
vt 0.593750 0.674727
vt 0.562500 0.674727
vt 0.531250 0.674727
vt 0.500000 0.674727
vt 0.468750 0.674727
vt 0.437500 0.674727
vt 0.406250 0.674727
vt 0.375000 0.674727
vt 0.343750 0.674727
vt 0.312500 0.674727
vt 0.281250 0.674727
vt 0.250000 0.674727
vt 0.218750 0.674727
vt 0.187500 0.674727
vt 0.156250 0.674727
vt 0.125000 0.674727
vt 0.093750 0.674727
vt 0.062500 0.674727
vt 0.031250 0.674727
vt 1.000000 0.674727
vt 0.000000 0.674727
s 0
f 1/1/1 34/68/1 33/67/1
f 2/4/2 35/69/2 34/68/2
f 3/6/3 36/70/3 35/69/3
f 4/8/4 37/71/4 36/70/4
f 37/71/5 6/12/5 38/72/5
f 6/12/6 39/73/6 38/72/6
f 7/14/7 40/74/7 39/73/7
f 8/16/8 41/75/8 40/74/8
f 9/18/9 42/76/9 41/75/9
f 42/76/10 11/22/10 43/77/10
f 43/77/11 12/24/11 44/78/11
f 12/24/12 45/79/12 44/78/12
f 13/26/13 46/80/13 45/79/13
f 46/80/14 15/30/14 47/81/14
f 47/81/15 16/32/15 48/82/15
f 16/32/16 49/83/16 48/82/16
f 49/83/17 18/36/17 50/84/17
f 50/84/18 19/38/18 51/85/18
f 51/85/19 20/40/19 52/86/19
f 20/40/20 53/87/20 52/86/20
f 53/87/21 22/44/21 54/88/21
f 54/88/22 23/46/22 55/89/22
f 55/89/23 24/48/23 56/90/23
f 24/48/24 57/91/24 56/90/24
f 25/50/25 58/92/25 57/91/25
f 26/52/26 59/93/26 58/92/26
f 59/93/27 28/56/27 60/94/27
f 28/56/28 61/95/28 60/94/28
f 29/58/29 62/96/29 61/95/29
f 62/96/30 31/63/30 63/97/30
f 19/39/31 11/23/31 3/7/31
f 31/63/32 64/98/32 63/97/32
f 32/65/33 33/66/33 64/98/33
f 64/98/34 96/131/34 95/129/34
f 63/97/35 95/129/35 94/128/35
f 93/127/36 63/97/36 94/128/36
f 92/126/37 62/96/37 93/127/37
f 91/125/38 61/95/38 92/126/38
f 59/93/39 91/125/39 90/124/39
f 58/92/40 90/124/40 89/123/40
f 57/91/41 89/123/41 88/122/41
f 56/90/42 88/122/42 87/121/42
f 55/89/43 87/121/43 86/120/43
f 54/88/44 86/120/44 85/119/44
f 53/87/45 85/119/45 84/118/45
f 52/86/46 84/118/46 83/117/46
f 51/85/47 83/117/47 82/116/47
f 50/84/48 82/116/48 81/115/48
f 49/83/49 81/115/49 80/114/49
f 48/82/50 80/114/50 79/113/50
f 78/112/51 48/82/51 79/113/51
f 46/80/52 78/112/52 77/111/52
f 76/110/53 46/80/53 77/111/53
f 44/78/54 76/110/54 75/109/54
f 43/77/55 75/109/55 74/108/55
f 42/76/56 74/108/56 73/107/56
f 41/75/57 73/107/57 72/106/57
f 40/74/58 72/106/58 71/105/58
f 39/73/59 71/105/59 70/104/59
f 38/72/60 70/104/60 69/103/60
f 37/71/61 69/103/61 68/102/61
f 36/70/62 68/102/62 67/101/62
f 35/69/63 67/101/63 66/100/63
f 34/68/64 66/100/64 65/99/64
f 33/67/65 65/99/65 96/130/65
f 79/113/66 87/121/66 95/129/66
f 1/1/1 2/4/1 34/68/1
f 2/4/2 3/6/2 35/69/2
f 3/6/3 4/8/3 36/70/3
f 4/8/4 5/10/4 37/71/4
f 37/71/5 5/10/5 6/12/5
f 6/12/6 7/14/6 39/73/6
f 7/14/7 8/16/7 40/74/7
f 8/16/8 9/18/8 41/75/8
f 9/18/9 10/20/9 42/76/9
f 42/76/10 10/20/10 11/22/10
f 43/77/11 11/22/11 12/24/11
f 12/24/12 13/26/12 45/79/12
f 13/26/13 14/28/13 46/80/13
f 46/80/67 14/28/67 15/30/67
f 47/81/15 15/30/15 16/32/15
f 16/32/16 17/34/16 49/83/16
f 49/83/17 17/34/17 18/36/17
f 50/84/18 18/36/18 19/38/18
f 51/85/68 19/38/68 20/40/68
f 20/40/20 21/42/20 53/87/20
f 53/87/21 21/42/21 22/44/21
f 54/88/69 22/44/69 23/46/69
f 55/89/23 23/46/23 24/48/23
f 24/48/24 25/50/24 57/91/24
f 25/50/25 26/52/25 58/92/25
f 26/52/26 27/54/26 59/93/26
f 59/93/27 27/54/27 28/56/27
f 28/56/28 29/58/28 61/95/28
f 29/58/29 30/60/29 62/96/29
f 62/96/70 30/60/70 31/63/70
f 3/7/71 2/5/71 1/2/71
f 1/2/31 32/64/31 31/62/31
f 31/62/72 30/61/72 29/59/72
f 29/59/31 28/57/31 27/55/31
f 27/55/31 26/53/31 25/51/31
f 25/51/31 24/49/31 23/47/31
f 23/47/31 22/45/31 21/43/31
f 21/43/72 20/41/72 19/39/72
f 19/39/73 18/37/73 17/35/73
f 17/35/31 16/33/31 15/31/31
f 15/31/74 14/29/74 13/27/74
f 13/27/31 12/25/31 11/23/31
f 11/23/31 10/21/31 9/19/31
f 9/19/31 8/17/31 7/15/31
f 7/15/31 6/13/31 5/11/31
f 5/11/74 4/9/74 3/7/74
f 3/7/31 1/2/31 31/62/31
f 31/62/31 29/59/31 27/55/31
f 27/55/31 25/51/31 23/47/31
f 23/47/31 21/43/31 19/39/31
f 19/39/31 17/35/31 15/31/31
f 15/31/31 13/27/31 11/23/31
f 11/23/31 9/19/31 7/15/31
f 7/15/31 5/11/31 3/7/31
f 3/7/31 31/62/31 27/55/31
f 27/55/31 23/47/31 19/39/31
f 19/39/31 15/31/31 11/23/31
f 11/23/31 7/15/31 3/7/31
f 3/7/31 27/55/31 19/39/31
f 31/63/32 32/65/32 64/98/32
f 32/65/33 1/3/33 33/66/33
f 64/98/34 33/66/34 96/131/34
f 63/97/35 64/98/35 95/129/35
f 93/127/36 62/96/36 63/97/36
f 92/126/37 61/95/37 62/96/37
f 91/125/38 60/94/38 61/95/38
f 59/93/39 60/94/39 91/125/39
f 58/92/40 59/93/40 90/124/40
f 57/91/41 58/92/41 89/123/41
f 56/90/42 57/91/42 88/122/42
f 55/89/43 56/90/43 87/121/43
f 54/88/44 55/89/44 86/120/44
f 53/87/45 54/88/45 85/119/45
f 52/86/46 53/87/46 84/118/46
f 51/85/47 52/86/47 83/117/47
f 50/84/48 51/85/48 82/116/48
f 49/83/49 50/84/49 81/115/49
f 48/82/50 49/83/50 80/114/50
f 78/112/51 47/81/51 48/82/51
f 46/80/52 47/81/52 78/112/52
f 76/110/53 45/79/53 46/80/53
f 44/78/54 45/79/54 76/110/54
f 43/77/55 44/78/55 75/109/55
f 42/76/56 43/77/56 74/108/56
f 41/75/57 42/76/57 73/107/57
f 40/74/58 41/75/58 72/106/58
f 39/73/59 40/74/59 71/105/59
f 38/72/60 39/73/60 70/104/60
f 37/71/61 38/72/61 69/103/61
f 36/70/62 37/71/62 68/102/62
f 35/69/63 36/70/63 67/101/63
f 34/68/64 35/69/64 66/100/64
f 33/67/65 34/68/65 65/99/65
f 95/129/66 96/131/66 65/99/66
f 65/99/66 66/100/66 67/101/66
f 67/101/66 68/102/66 69/103/66
f 69/103/66 70/104/66 71/105/66
f 71/105/66 72/106/66 73/107/66
f 73/107/66 74/108/66 75/109/66
f 75/109/66 76/110/66 77/111/66
f 77/111/66 78/112/66 79/113/66
f 79/113/66 80/114/66 81/115/66
f 81/115/66 82/116/66 83/117/66
f 83/117/66 84/118/66 85/119/66
f 85/119/66 86/120/66 87/121/66
f 87/121/66 88/122/66 89/123/66
f 89/123/66 90/124/66 91/125/66
f 91/125/66 92/126/66 93/127/66
f 93/127/66 94/128/66 95/129/66
f 95/129/66 65/99/66 67/101/66
f 67/101/66 69/103/66 71/105/66
f 71/105/66 73/107/66 75/109/66
f 75/109/66 77/111/66 79/113/66
f 79/113/66 81/115/66 83/117/66
f 83/117/66 85/119/66 87/121/66
f 87/121/66 89/123/66 91/125/66
f 91/125/66 93/127/66 95/129/66
f 95/129/66 67/101/66 71/105/66
f 71/105/66 75/109/66 79/113/66
f 79/113/66 83/117/66 87/121/66
f 87/121/66 91/125/66 95/129/66
f 95/129/66 71/105/66 79/113/66
